<?xml version="1.0" encoding="UTF-8"?>
<svg xmlns="http://www.w3.org/2000/svg" xmlns:xlink="http://www.w3.org/1999/xlink" width="613.2756pt" height="584.9291pt" viewBox="0 0 613.2756 584.9291" version="1.1">
<g id="surface1">
<path style="fill-rule:nonzero;fill:rgb(10.195923%,10.195923%,9.411621%);fill-opacity:1;stroke-width:0.216;stroke-linecap:butt;stroke-linejoin:miter;stroke:rgb(10.195923%,10.195923%,9.411621%);stroke-opacity:1;stroke-miterlimit:22.925586;" d="M 100.746094 189.725975 L 103.300781 189.725975 L 103.300781 214.390037 L 100.746094 214.390037 Z M 133.78125 189.725975 L 136.339844 189.725975 L 136.339844 210.796287 L 136.410156 210.796287 L 153.746094 189.725975 L 156.71875 189.725975 L 156.71875 214.390037 L 154.164063 214.390037 L 154.164063 193.319725 L 154.09375 193.319725 L 136.859375 214.390037 L 133.78125 214.390037 Z M 194.246094 189.725975 L 196.800781 189.725975 L 196.800781 212.042381 L 206.472656 212.042381 L 206.472656 214.390037 L 184.574219 214.390037 L 184.574219 212.042381 L 194.246094 212.042381 Z M 234.746094 189.725975 L 254.640625 189.725975 L 254.640625 192.077537 L 237.300781 192.077537 L 237.300781 201.331444 L 253.742188 201.331444 L 253.742188 203.683006 L 237.300781 203.683006 L 237.300781 212.042381 L 254.367188 212.042381 L 254.367188 214.390037 L 234.746094 214.390037 Z M 284.054688 189.725975 L 286.609375 189.725975 L 286.609375 200.573631 L 296.523438 200.573631 C 300.773438 200.573631 302.429688 199.120506 302.5 194.768944 C 302.53125 192.077537 302.707031 190.245506 303.15625 189.725975 L 305.917969 189.725975 C 305.332031 190.280662 305.125 193.284569 305.054688 194.839256 C 304.882813 198.882225 304.15625 201.124412 300.667969 201.6791 L 300.667969 201.745506 C 303.878906 202.472069 305.503906 205.097069 305.503906 207.722069 C 305.503906 212.905662 301.671875 214.390037 297.488281 214.390037 L 284.054688 214.390037 Z M 286.609375 212.042381 L 297.664063 212.042381 C 300.011719 212.042381 302.738281 211.350975 302.738281 207.722069 C 302.738281 203.956444 300.21875 202.921287 297.421875 202.921287 L 286.609375 202.921287 Z M 335.15625 189.725975 L 337.710938 189.725975 L 337.710938 214.390037 L 335.15625 214.390037 Z M 367.226563 202.058006 C 367.226563 193.354881 373.617188 189.104881 380.628906 189.104881 C 387.640625 189.104881 394.03125 193.354881 394.03125 202.058006 C 394.03125 210.761131 387.640625 215.011131 380.628906 215.011131 C 373.617188 215.011131 367.226563 210.761131 367.226563 202.058006 Z M 369.992188 202.058006 C 369.992188 209.483787 375.207031 212.663475 380.628906 212.663475 C 386.050781 212.663475 391.269531 209.483787 391.269531 202.058006 C 391.269531 194.632225 386.050781 191.452537 380.628906 191.452537 C 375.207031 191.452537 369.992188 194.632225 369.992188 202.058006 Z M 423.683594 189.725975 L 426.238281 189.725975 L 426.238281 200.573631 L 436.152344 200.573631 C 440.402344 200.573631 442.058594 199.120506 442.128906 194.768944 C 442.164063 192.077537 442.335938 190.245506 442.785156 189.725975 L 445.546875 189.725975 C 444.960938 190.280662 444.753906 193.284569 444.683594 194.839256 C 444.511719 198.882225 443.789063 201.124412 440.296875 201.6791 L 440.296875 201.745506 C 443.511719 202.472069 445.132813 205.097069 445.132813 207.722069 C 445.132813 212.905662 441.300781 214.390037 437.121094 214.390037 L 423.683594 214.390037 Z M 426.238281 212.042381 L 437.292969 212.042381 C 439.640625 212.042381 442.371094 211.350975 442.371094 207.722069 C 442.371094 203.956444 439.847656 202.921287 437.050781 202.921287 L 426.238281 202.921287 Z M 493.785156 207.343162 C 493.609375 213.214256 488.535156 215.011131 483.492188 215.011131 C 478.722656 215.011131 473.75 213.249412 473.75 207.862694 C 473.75 203.890037 476.894531 202.229881 482.765625 201.296287 C 487.257813 200.573631 491.746094 200.124412 491.746094 196.358787 C 491.746094 192.456444 487.914063 191.452537 484.214844 191.452537 C 479.484375 191.452537 476.03125 192.698631 475.582031 197.878319 L 473.023438 197.878319 C 473.40625 191.245506 477.964844 189.104881 484.214844 189.104881 C 489.015625 189.104881 494.507813 190.761131 494.507813 196.808006 C 494.507813 201.538475 490.019531 202.577537 485.527344 203.33535 C 479.519531 204.339256 476.515625 205.097069 476.515625 208.311912 C 476.515625 211.108787 479.519531 212.663475 483.492188 212.663475 C 487.464844 212.663475 490.882813 211.558006 491.226563 207.343162 Z M 493.785156 207.343162 " transform="matrix(1,0,0,-1,9,575.9291)"/>
<path style=" stroke:none;fill-rule:evenodd;fill:rgb(46.273804%,13.725281%,34.509277%);fill-opacity:1;" d="M 332.507813 199.929688 L 362.511719 182.339844 L 306.425781 148.546875 L 276.257813 165.480469 L 276.257813 202.132813 L 306.589844 184.964844 Z M 332.507813 199.929688 "/>
<path style=" stroke:none;fill-rule:evenodd;fill:rgb(52.941895%,52.941895%,52.549744%);fill-opacity:1;" d="M 276.285156 165.480469 L 276.3125 232.371094 L 250.761719 214.351563 L 250.761719 179.652344 Z M 276.285156 165.480469 "/>
<path style=" stroke:none;fill-rule:evenodd;fill:rgb(46.273804%,13.725281%,34.509277%);fill-opacity:1;" d="M 280.585938 229.644531 L 250.761719 247.808594 L 306.71875 281.238281 L 337.03125 264.550781 L 337.03125 227.914063 L 306.589844 244.820313 Z M 280.585938 229.644531 "/>
<path style=" stroke:none;fill-rule:evenodd;fill:rgb(52.941895%,52.941895%,52.549744%);fill-opacity:1;" d="M 337.015625 264.550781 L 336.890625 197.292969 L 362.511719 215.554688 L 362.511719 250.496094 Z M 337.015625 264.550781 "/>
<path style=" stroke:none;fill-rule:evenodd;fill:rgb(100%,100%,100%);fill-opacity:1;" d="M 306.636719 179.792969 L 321.820313 188.558594 L 337.003906 197.328125 L 337.003906 232.390625 L 306.636719 249.921875 L 276.269531 232.390625 L 276.269531 197.328125 L 291.453125 188.558594 Z M 306.636719 179.792969 "/>
<path style="fill-rule:nonzero;fill:rgb(46.273804%,13.725281%,34.509277%);fill-opacity:1;stroke-width:0.7999;stroke-linecap:butt;stroke-linejoin:miter;stroke:rgb(100%,100%,100%);stroke-opacity:1;stroke-miterlimit:22.925586;" d="M 144.179688 237.628319 C 143.445313 235.1166 142.152344 233.089256 140.292969 231.542381 C 138.4375 229.999412 136.015625 229.229881 133.035156 229.229881 L 91.351563 229.229881 L 91.351563 239.589256 L 124.398438 239.589256 C 125.394531 239.589256 125.890625 239.9291 125.890625 240.608787 C 125.890625 241.030662 125.761719 241.327537 125.5 241.515037 C 125.238281 241.694725 125 241.839256 124.792969 241.944725 L 96.769531 255.132225 C 94.9375 256.018944 93.578125 257.393944 92.6875 259.253319 C 91.796875 261.108787 91.351563 263.061912 91.351563 265.100975 C 91.351563 265.886131 91.378906 266.3041 91.429688 266.354881 C 92.164063 268.870506 93.457031 270.89785 95.316406 272.440819 C 97.171875 273.983787 99.59375 274.757225 102.578125 274.757225 L 144.179688 274.757225 L 144.179688 264.393944 L 111.132813 264.393944 C 110.714844 264.393944 110.347656 264.288475 110.035156 264.081444 C 109.71875 263.870506 109.5625 263.636131 109.5625 263.374412 L 109.5625 263.296287 C 109.667969 262.979881 109.839844 262.718162 110.074219 262.511131 C 110.308594 262.300194 110.53125 262.143944 110.742188 262.038475 L 138.84375 248.77285 C 140.097656 248.198631 141.316406 247.073631 142.492188 245.39785 C 143.667969 243.722069 144.257813 241.5541 144.257813 238.882225 C 144.257813 238.097069 144.230469 237.6791 144.179688 237.628319 Z M 169.613281 254.503319 C 170.1875 256.390037 170.710938 257.96035 171.183594 259.214256 C 171.652344 260.468162 172.136719 261.475975 172.636719 262.237694 C 173.132813 262.995506 173.707031 263.546287 174.359375 263.886131 C 175.015625 264.225975 175.8125 264.393944 176.753906 264.393944 L 178.875 264.393944 C 180.496094 264.393944 181.832031 263.64785 182.878906 262.155662 C 183.925781 260.667381 184.917969 258.112694 185.863281 254.503319 Z M 206.976563 229.229881 L 198.421875 261.725975 C 198 263.190819 197.414063 264.694725 196.652344 266.237694 C 195.894531 267.784569 195.007813 269.183006 193.984375 270.436912 C 192.964844 271.694725 191.8125 272.725975 190.53125 273.538475 C 189.25 274.350975 187.875 274.757225 186.410156 274.757225 L 169.0625 274.757225 C 167.648438 274.757225 166.289063 274.296287 164.980469 273.382225 C 163.671875 272.464256 162.484375 271.343162 161.410156 270.007225 C 160.335938 268.671287 159.433594 267.245506 158.703125 265.729881 C 157.96875 264.21035 157.445313 262.878319 157.132813 261.725975 L 148.8125 229.229881 L 163.019531 229.229881 L 166.945313 244.143944 L 188.609375 244.143944 L 192.691406 229.229881 Z M 226.914063 257.409569 L 226.914063 229.229881 L 213.097656 229.229881 L 213.097656 261.64785 C 213.097656 266.093162 214.367188 269.393944 216.90625 271.538475 C 219.445313 273.683006 223.566406 274.757225 229.269531 274.757225 L 249.050781 274.757225 C 254.753906 274.757225 258.875 273.683006 261.414063 271.538475 C 263.953125 269.393944 265.222656 266.093162 265.222656 261.64785 L 265.222656 229.229881 L 251.40625 229.229881 L 251.40625 257.409569 C 251.40625 258.558006 251.300781 259.581444 251.09375 260.468162 C 250.882813 261.358787 250.503906 262.093162 249.953125 262.667381 C 249.40625 263.2416 248.605469 263.675194 247.558594 263.964256 C 246.511719 264.249412 245.179688 264.393944 243.554688 264.393944 L 234.765625 264.393944 C 233.089844 264.393944 231.742188 264.249412 230.722656 263.964256 C 229.703125 263.675194 228.917969 263.2416 228.367188 262.667381 C 227.816406 262.093162 227.4375 261.358787 227.226563 260.468162 C 227.019531 259.581444 226.914063 258.558006 226.914063 257.409569 Z M 325.113281 229.229881 L 306.902344 251.913475 L 325.113281 274.757225 L 309.492188 274.757225 L 295.519531 257.327537 L 286.023438 257.327537 L 286.023438 274.757225 L 272.207031 274.757225 L 272.207031 229.229881 L 286.023438 229.229881 L 286.023438 246.968162 L 295.128906 246.968162 L 309.414063 229.229881 Z M 351.253906 254.503319 C 351.828125 256.390037 352.351563 257.96035 352.824219 259.214256 C 353.292969 260.468162 353.777344 261.475975 354.277344 262.237694 C 354.773438 262.995506 355.347656 263.546287 356 263.886131 C 356.65625 264.225975 357.453125 264.393944 358.394531 264.393944 L 360.515625 264.393944 C 362.136719 264.393944 363.472656 263.64785 364.519531 262.155662 C 365.566406 260.667381 366.558594 258.112694 367.5 254.503319 Z M 388.617188 229.229881 L 380.058594 261.725975 C 379.640625 263.190819 379.054688 264.694725 378.292969 266.237694 C 377.535156 267.784569 376.648438 269.183006 375.625 270.436912 C 374.605469 271.694725 373.453125 272.725975 372.171875 273.538475 C 370.890625 274.350975 369.515625 274.757225 368.050781 274.757225 L 350.703125 274.757225 C 349.289063 274.757225 347.929688 274.296287 346.621094 273.382225 C 345.3125 272.464256 344.121094 271.343162 343.050781 270.007225 C 341.976563 268.671287 341.074219 267.245506 340.339844 265.729881 C 339.609375 264.21035 339.085938 262.878319 338.769531 261.725975 L 330.449219 229.229881 L 344.660156 229.229881 L 348.582031 244.143944 L 370.25 244.143944 L 374.332031 229.229881 Z M 414.363281 239.589256 L 444.820313 239.589256 L 444.820313 229.229881 L 408.871094 229.229881 C 403.164063 229.229881 399.042969 230.300194 396.503906 232.448631 C 393.96875 234.593162 392.699219 237.890037 392.699219 242.33535 L 392.699219 274.757225 L 406.515625 274.757225 L 406.515625 246.577537 C 406.515625 245.370506 406.617188 244.339256 406.828125 243.475975 C 407.039063 242.612694 407.417969 241.890037 407.964844 241.315819 C 408.515625 240.7416 409.300781 240.308006 410.320313 240.02285 C 411.339844 239.733787 412.6875 239.589256 414.363281 239.589256 Z M 503.929688 261.64785 C 503.929688 266.093162 502.660156 269.393944 500.121094 271.538475 C 497.582031 273.683006 493.460938 274.757225 487.757813 274.757225 L 451.804688 274.757225 L 451.804688 229.229881 L 465.621094 229.229881 L 465.621094 245.007225 L 487.757813 245.007225 C 493.460938 245.007225 497.582031 246.077537 500.121094 248.225975 C 502.660156 250.370506 503.929688 253.667381 503.929688 258.112694 Z M 483.203125 264.393944 C 484.671875 264.393944 485.859375 264.343162 486.777344 264.237694 C 487.691406 264.132225 488.398438 263.925194 488.894531 263.608787 C 489.390625 263.296287 489.71875 262.839256 489.875 262.237694 C 490.035156 261.632225 490.113281 260.83535 490.113281 259.843162 C 490.113281 258.061912 489.640625 256.874412 488.699219 256.268944 C 487.757813 255.667381 485.925781 255.3666 483.203125 255.3666 L 465.621094 255.3666 L 465.621094 264.393944 Z M 483.203125 264.393944 " transform="matrix(1,0,0,-1,9,575.9291)"/>
<path style="fill:none;stroke-width:0.4997;stroke-linecap:butt;stroke-linejoin:miter;stroke:rgb(61.177063%,61.177063%,61.177063%);stroke-opacity:1;stroke-miterlimit:22.925586;" d="M 81.011719 176.276756 L 514.265625 176.276756 " transform="matrix(1,0,0,-1,9,575.9291)"/>
<path style=" stroke:none;fill-rule:nonzero;fill:rgb(34.117126%,33.724976%,33.724976%);fill-opacity:1;" d="M 115.644531 436.382813 C 113.15625 436.382813 111.167969 435.566406 109.683594 433.929688 C 108.195313 432.292969 107.453125 430.074219 107.453125 427.28125 C 107.453125 424.484375 108.195313 422.265625 109.683594 420.632813 C 111.167969 418.996094 113.15625 418.175781 115.644531 418.175781 C 117.558594 418.175781 119.191406 418.691406 120.535156 419.722656 C 121.882813 420.757813 122.636719 422.117188 122.804688 423.808594 L 120.40625 423.808594 C 120.304688 422.695313 119.824219 421.8125 118.953125 421.152344 C 118.089844 420.496094 116.988281 420.167969 115.667969 420.167969 C 113.886719 420.167969 112.472656 420.78125 111.429688 422.011719 C 110.386719 423.242188 109.867188 424.996094 109.867188 427.28125 C 109.867188 429.554688 110.382813 431.308594 111.417969 432.542969 C 112.449219 433.777344 113.851563 434.390625 115.621094 434.390625 C 116.996094 434.390625 118.113281 434.054688 118.960938 433.382813 C 119.8125 432.710938 120.289063 431.746094 120.40625 430.5 L 122.804688 430.5 C 122.636719 432.375 121.902344 433.820313 120.59375 434.84375 C 119.289063 435.871094 117.640625 436.382813 115.644531 436.382813 Z M 133.664063 418.175781 C 136.128906 418.175781 138.148438 419.007813 139.714844 420.671875 C 141.285156 422.335938 142.074219 424.542969 142.074219 427.28125 C 142.074219 430.015625 141.285156 432.222656 139.714844 433.886719 C 138.148438 435.550781 136.128906 436.382813 133.664063 436.382813 C 131.1875 436.382813 129.164063 435.550781 127.585938 433.878906 C 126.011719 432.210938 125.21875 430.011719 125.21875 427.28125 C 125.21875 424.542969 126.011719 422.335938 127.585938 420.671875 C 129.164063 419.007813 131.1875 418.175781 133.664063 418.175781 Z M 133.640625 434.390625 C 135.402344 434.390625 136.847656 433.765625 137.96875 432.515625 C 139.097656 431.265625 139.660156 429.519531 139.660156 427.28125 C 139.660156 425.039063 139.097656 423.292969 137.976563 422.042969 C 136.855469 420.792969 135.429688 420.167969 133.691406 420.167969 C 131.917969 420.167969 130.464844 420.792969 129.335938 422.042969 C 128.199219 423.292969 127.632813 425.039063 127.632813 427.28125 C 127.632813 429.511719 128.199219 431.257813 129.328125 432.507813 C 130.457031 433.765625 131.894531 434.390625 133.640625 434.390625 Z M 159 436.085938 L 156.609375 436.085938 L 147.382813 422.183594 L 147.382813 436.085938 L 145.167969 436.085938 L 145.167969 418.472656 L 147.550781 418.472656 L 156.777344 432.375 L 156.777344 418.472656 L 159 418.472656 Z M 170.3125 436.382813 C 167.824219 436.382813 165.835938 435.566406 164.351563 433.929688 C 162.863281 432.292969 162.121094 430.074219 162.121094 427.28125 C 162.121094 424.484375 162.863281 422.265625 164.351563 420.632813 C 165.835938 418.996094 167.824219 418.175781 170.3125 418.175781 C 172.226563 418.175781 173.859375 418.691406 175.203125 419.722656 C 176.546875 420.757813 177.300781 422.117188 177.46875 423.808594 L 175.074219 423.808594 C 174.972656 422.695313 174.492188 421.8125 173.621094 421.152344 C 172.753906 420.496094 171.65625 420.167969 170.335938 420.167969 C 168.554688 420.167969 167.136719 420.78125 166.097656 422.011719 C 165.054688 423.242188 164.535156 424.996094 164.535156 427.28125 C 164.535156 429.554688 165.050781 431.308594 166.085938 432.542969 C 167.117188 433.777344 168.519531 434.390625 170.285156 434.390625 C 171.664063 434.390625 172.78125 434.054688 173.628906 433.382813 C 174.476563 432.710938 174.957031 431.746094 175.074219 430.5 L 177.46875 430.5 C 177.300781 432.375 176.570313 433.820313 175.261719 434.84375 C 173.957031 435.871094 172.308594 436.382813 170.3125 436.382813 Z M 193.835938 436.085938 L 180.703125 436.085938 L 180.703125 418.472656 L 193.425781 418.472656 L 193.425781 420.566406 L 183.035156 420.566406 L 183.035156 425.945313 L 192.753906 425.945313 L 192.753906 428.035156 L 183.035156 428.035156 L 183.035156 433.992188 L 193.835938 433.992188 Z M 197.109375 418.472656 L 203.683594 418.472656 C 205.125 418.472656 206.332031 418.609375 207.304688 418.875 C 208.28125 419.148438 209.050781 419.722656 209.617188 420.617188 C 210.1875 421.511719 210.46875 422.507813 210.46875 423.617188 C 210.46875 425.394531 209.90625 426.746094 208.777344 427.664063 C 207.648438 428.585938 206.011719 429.042969 203.875 429.042969 L 199.441406 429.042969 L 199.441406 436.085938 L 197.109375 436.085938 Z M 199.441406 426.953125 L 203.898438 426.953125 C 205.398438 426.953125 206.460938 426.675781 207.101563 426.113281 C 207.738281 425.554688 208.054688 424.742188 208.054688 423.691406 C 208.054688 422.984375 207.878906 422.355469 207.527344 421.816406 C 207.175781 421.269531 206.730469 420.925781 206.1875 420.78125 C 205.648438 420.636719 204.867188 420.566406 203.851563 420.566406 L 199.441406 420.566406 Z M 226.035156 420.566406 L 220.210938 420.566406 L 220.210938 436.085938 L 217.871094 436.085938 L 217.871094 420.566406 L 212.09375 420.566406 L 212.09375 418.472656 L 226.035156 418.472656 Z M 237.414063 424.417969 C 238.246094 424.417969 238.964844 424.71875 239.5625 425.320313 C 240.164063 425.921875 240.464844 426.636719 240.464844 427.46875 C 240.464844 428.304688 240.164063 429.019531 239.5625 429.621094 C 238.964844 430.222656 238.246094 430.523438 237.414063 430.523438 C 236.582031 430.523438 235.863281 430.222656 235.261719 429.621094 C 234.664063 429.019531 234.363281 428.304688 234.363281 427.46875 C 234.363281 426.636719 234.664063 425.921875 235.261719 425.320313 C 235.863281 424.71875 236.582031 424.417969 237.414063 424.417969 Z M 250.230469 418.472656 L 255.820313 418.472656 C 261.804688 418.472656 264.792969 421.378906 264.792969 427.183594 C 264.792969 433.117188 261.804688 436.085938 255.820313 436.085938 L 250.230469 436.085938 Z M 252.566406 433.992188 L 255.769531 433.992188 C 258.324219 433.992188 260.070313 433.398438 260.996094 432.210938 C 261.925781 431.019531 262.390625 429.34375 262.390625 427.183594 C 262.390625 425.074219 261.929688 423.449219 261.003906 422.296875 C 260.078125 421.140625 258.332031 420.566406 255.769531 420.566406 L 252.566406 420.566406 Z M 281.132813 436.085938 L 268 436.085938 L 268 418.472656 L 280.71875 418.472656 L 280.71875 420.566406 L 270.332031 420.566406 L 270.332031 425.945313 L 280.046875 425.945313 L 280.046875 428.035156 L 270.332031 428.035156 L 270.332031 433.992188 L 281.132813 433.992188 Z M 291.054688 436.382813 C 288.570313 436.382813 286.714844 435.828125 285.484375 434.714844 C 284.253906 433.601563 283.609375 432.171875 283.546875 430.425781 L 285.789063 430.425781 C 285.910156 431.738281 286.457031 432.710938 287.429688 433.339844 C 288.40625 433.96875 289.578125 434.28125 290.957031 434.28125 C 292.261719 434.28125 293.3125 434.015625 294.109375 433.476563 C 294.90625 432.9375 295.304688 432.214844 295.304688 431.289063 C 295.304688 430.324219 294.890625 429.617188 294.066406 429.175781 C 293.242188 428.738281 291.824219 428.300781 289.804688 427.875 C 287.792969 427.445313 286.351563 426.851563 285.472656 426.085938 C 284.59375 425.328125 284.15625 424.316406 284.15625 423.050781 C 284.15625 421.628906 284.726563 420.453125 285.867188 419.542969 C 287.011719 418.628906 288.523438 418.175781 290.414063 418.175781 C 292.402344 418.175781 294 418.632813 295.21875 419.558594 C 296.4375 420.476563 297.082031 421.777344 297.152344 423.460938 L 294.882813 423.460938 C 294.652344 421.328125 293.195313 420.265625 290.511719 420.265625 C 289.210938 420.265625 288.207031 420.507813 287.496094 420.996094 C 286.785156 421.484375 286.429688 422.136719 286.429688 422.945313 C 286.429688 423.679688 286.710938 424.230469 287.285156 424.601563 C 287.859375 424.96875 288.929688 425.324219 290.492188 425.671875 C 292.058594 426.015625 293.300781 426.355469 294.222656 426.691406 C 295.144531 427.027344 295.933594 427.546875 296.589844 428.257813 C 297.246094 428.964844 297.574219 429.917969 297.574219 431.109375 C 297.574219 432.625 296.96875 433.882813 295.769531 434.882813 C 294.5625 435.882813 292.988281 436.382813 291.054688 436.382813 Z M 303.449219 436.085938 L 301.105469 436.085938 L 301.105469 418.472656 L 303.449219 418.472656 Z M 315.351563 436.382813 C 312.820313 436.382813 310.769531 435.554688 309.195313 433.898438 C 307.621094 432.242188 306.835938 430.03125 306.835938 427.28125 C 306.835938 424.519531 307.613281 422.308594 309.167969 420.65625 C 310.722656 419 312.761719 418.175781 315.28125 418.175781 C 317.402344 418.175781 319.167969 418.683594 320.570313 419.703125 C 321.976563 420.726563 322.761719 422.09375 322.929688 423.808594 L 320.515625 423.808594 C 320.421875 422.667969 319.910156 421.777344 318.980469 421.136719 C 318.050781 420.492188 316.828125 420.167969 315.304688 420.167969 C 313.484375 420.167969 312.019531 420.789063 310.914063 422.027344 C 309.804688 423.269531 309.25 425.023438 309.25 427.28125 C 309.25 429.527344 309.8125 431.277344 310.929688 432.523438 C 312.054688 433.765625 313.519531 434.390625 315.332031 434.390625 C 317.867188 434.390625 319.753906 433.554688 320.984375 431.882813 L 320.984375 429.199219 L 316.339844 429.199219 L 316.339844 427.101563 L 323.242188 427.101563 L 323.242188 436.085938 L 321.597656 436.085938 L 320.984375 434.234375 C 319.789063 435.664063 317.914063 436.382813 315.351563 436.382813 Z M 340.617188 436.085938 L 338.226563 436.085938 L 329 422.183594 L 329 436.085938 L 326.785156 436.085938 L 326.785156 418.472656 L 329.167969 418.472656 L 338.394531 432.375 L 338.394531 418.472656 L 340.617188 418.472656 Z M 353.421875 424.417969 C 354.253906 424.417969 354.96875 424.71875 355.570313 425.320313 C 356.171875 425.921875 356.472656 426.636719 356.472656 427.46875 C 356.472656 428.304688 356.171875 429.019531 355.570313 429.621094 C 354.96875 430.222656 354.253906 430.523438 353.421875 430.523438 C 352.589844 430.523438 351.871094 430.222656 351.269531 429.621094 C 350.667969 429.019531 350.371094 428.304688 350.371094 427.46875 C 350.371094 426.636719 350.667969 425.921875 351.269531 425.320313 C 351.871094 424.71875 352.589844 424.417969 353.421875 424.417969 Z M 379.371094 436.085938 L 366.238281 436.085938 L 366.238281 418.472656 L 378.960938 418.472656 L 378.960938 420.566406 L 368.570313 420.566406 L 368.570313 425.945313 L 378.289063 425.945313 L 378.289063 428.035156 L 368.570313 428.035156 L 368.570313 433.992188 L 379.371094 433.992188 Z M 396.96875 436.085938 L 394.105469 436.085938 L 388.894531 428.625 L 383.660156 436.085938 L 380.796875 436.085938 L 387.5625 426.808594 L 381.46875 418.472656 L 384.320313 418.472656 L 388.871094 424.984375 L 393.445313 418.472656 L 396.296875 418.472656 L 390.179688 426.808594 Z M 412.1875 436.085938 L 399.054688 436.085938 L 399.054688 418.472656 L 411.777344 418.472656 L 411.777344 420.566406 L 401.386719 420.566406 L 401.386719 425.945313 L 411.105469 425.945313 L 411.105469 428.035156 L 401.386719 428.035156 L 401.386719 433.992188 L 412.1875 433.992188 Z M 422.839844 436.382813 C 420.351563 436.382813 418.363281 435.566406 416.878906 433.929688 C 415.390625 432.292969 414.648438 430.074219 414.648438 427.28125 C 414.648438 424.484375 415.390625 422.265625 416.878906 420.632813 C 418.363281 418.996094 420.351563 418.175781 422.839844 418.175781 C 424.753906 418.175781 426.386719 418.691406 427.730469 419.722656 C 429.078125 420.757813 429.832031 422.117188 430 423.808594 L 427.601563 423.808594 C 427.503906 422.695313 427.019531 421.8125 426.148438 421.152344 C 425.285156 420.496094 424.183594 420.167969 422.863281 420.167969 C 421.082031 420.167969 419.667969 420.78125 418.625 422.011719 C 417.585938 423.242188 417.0625 424.996094 417.0625 427.28125 C 417.0625 429.554688 417.578125 431.308594 418.613281 432.542969 C 419.648438 433.777344 421.046875 434.390625 422.816406 434.390625 C 424.195313 434.390625 425.308594 434.054688 426.15625 433.382813 C 427.007813 432.710938 427.484375 431.746094 427.601563 430.5 L 430 430.5 C 429.832031 432.375 429.097656 433.820313 427.789063 434.84375 C 426.484375 435.871094 424.835938 436.382813 422.839844 436.382813 Z M 440.136719 436.382813 C 438.097656 436.382813 436.566406 435.992188 435.554688 435.195313 C 434.542969 434.402344 433.902344 433.46875 433.636719 432.398438 C 433.363281 431.324219 433.230469 430.078125 433.230469 428.660156 L 433.230469 418.472656 L 435.5625 418.472656 L 435.5625 428.625 C 435.5625 430.9375 435.953125 432.460938 436.726563 433.1875 C 437.503906 433.917969 438.640625 434.28125 440.136719 434.28125 C 441.636719 434.28125 442.773438 433.917969 443.550781 433.1875 C 444.328125 432.460938 444.714844 430.9375 444.714844 428.625 L 444.714844 418.472656 L 447.058594 418.472656 L 447.058594 428.660156 C 447.058594 430.792969 446.804688 432.363281 446.296875 433.371094 C 445.785156 434.378906 445.019531 435.132813 443.992188 435.632813 C 442.96875 436.132813 441.683594 436.382813 440.136719 436.382813 Z M 463.511719 420.566406 L 457.6875 420.566406 L 457.6875 436.085938 L 455.347656 436.085938 L 455.347656 420.566406 L 449.570313 420.566406 L 449.570313 418.472656 L 463.511719 418.472656 Z M 468.65625 436.085938 L 466.3125 436.085938 L 466.3125 418.472656 L 468.65625 418.472656 Z M 480.488281 418.175781 C 482.953125 418.175781 484.972656 419.007813 486.539063 420.671875 C 488.109375 422.335938 488.898438 424.542969 488.898438 427.28125 C 488.898438 430.015625 488.109375 432.222656 486.539063 433.886719 C 484.972656 435.550781 482.953125 436.382813 480.488281 436.382813 C 478.011719 436.382813 475.988281 435.550781 474.40625 433.878906 C 472.832031 432.210938 472.042969 430.011719 472.042969 427.28125 C 472.042969 424.542969 472.832031 422.335938 474.40625 420.671875 C 475.988281 419.007813 478.011719 418.175781 480.488281 418.175781 Z M 480.464844 434.390625 C 482.226563 434.390625 483.667969 433.765625 484.792969 432.515625 C 485.921875 431.265625 486.484375 429.519531 486.484375 427.28125 C 486.484375 425.039063 485.921875 423.292969 484.800781 422.042969 C 483.679688 420.792969 482.25 420.167969 480.511719 420.167969 C 478.742188 420.167969 477.289063 420.792969 476.160156 422.042969 C 475.023438 423.292969 474.457031 425.039063 474.457031 427.28125 C 474.457031 429.511719 475.023438 431.257813 476.152344 432.507813 C 477.28125 433.765625 478.714844 434.390625 480.464844 434.390625 Z M 505.824219 436.085938 L 503.433594 436.085938 L 494.207031 422.183594 L 494.207031 436.085938 L 491.992188 436.085938 L 491.992188 418.472656 L 494.375 418.472656 L 503.601563 432.375 L 503.601563 418.472656 L 505.824219 418.472656 Z M 505.824219 436.085938 "/>
</g>
</svg>
