<svg width="1920" height="800" viewBox="0 0 1920 800" fill="none" xmlns="http://www.w3.org/2000/svg">
<rect width="1920" height="800" fill="white"/>
<path d="M828 118.584C828 57.519 797.597 17.5971 769.959 0H0V665.32C7.07031 668.34 10.9588 672.519 38.9515 677.621C73.3577 683.891 138.45 695.349 208.254 677.227C245.43 667.575 305.824 633.67 312.38 627.193C371 569.28 387.969 557.067 421.52 542.49C439.586 534.642 464.971 530.969 484.382 530.443C529.632 527.423 606.634 525.944 638.644 481.592C645.604 471.947 659.855 453.848 676.438 373.873C693.015 293.929 737.851 273.431 747.784 266.715C775.165 248.198 828 195.77 828 118.584Z" fill="url(#paint0_linear)"/>
<defs>
<linearGradient id="paint0_linear" x1="543.5" y1="151" x2="-38.5" y2="639.5" gradientUnits="userSpaceOnUse">
<stop stop-color="#D8B800"/>
<stop offset="1" stop-color="#FAFF03"/>
</linearGradient>
</defs>
</svg>
